<svg id="Layer_1" data-name="Layer 1" xmlns="http://www.w3.org/2000/svg" viewBox="0 0 1244.43 381.19"><defs><style>.cls-1{fill:#e84000;}.cls-2{font-size:120px;font-family:Trebuchet-BoldItalic, Trebuchet MS;font-weight:700;font-style:italic;}.cls-3{font-size:140px;}</style></defs><path class="cls-1" d="M0,.08C34.06-1.25,56.08,13.83,68.86,42c3.45,7.6,17.25,14.69,26.39,14.82,82.68,1.13,165.39.29,248.07,1.06,13.34.12,26.62,5.35,39.93,8.22v24c-8,34.92-17,69.64-23.64,104.81-3.87,20.49-13.37,28.5-34.29,28.25-71.71-.83-143.43-.32-214.95-.32-6.48,23.46,4.26,28.1,22.75,27.94,59.86-.49,119.73-.27,179.6-.08,10.33,0,886.71,4.51,897,5.22l-6.19,14.61c-5.85,2.69-1015.4-1.39-1085.24-1.14-19.21.07-25.34-11.28-28.57-27.85C79.43,188.61,66.19,136.17,58.32,82.93c-5.56-37.64-19.61-63.67-59.23-71ZM101.66,204.26c75.91,0,148.48.27,221-.48,6-.06,16-6,17.17-10.88,8.72-37.38,15.69-75.15,23.37-113.63H75.94C84.69,121.77,92.88,161.59,101.66,204.26Z"/><path class="cls-1" d="M137,109.84H294.43C282.19,129.75,167,132.57,137,109.84Z"/><path class="cls-1" d="M152.05,160.06H287.3q0,5,.05,10c-44.91,8.09-90,3-135,3.41Q152.18,166.75,152.05,160.06Z"/><text class="cls-2" transform="translate(438.66 208.94)">Simple <tspan class="cls-3" x="411.56" y="0">LIST</tspan></text><circle class="cls-1" cx="152.05" cy="317.69" r="30.25"/><circle class="cls-1" cx="287.35" cy="317.69" r="30.25"/></svg>